<?xml version="1.0" encoding="iso-8859-1"?>
<!-- Generator: Adobe Illustrator 19.0.0, SVG Export Plug-In . SVG Version: 6.00 Build 0)  -->
<svg version="1.1" id="Layer_1" xmlns="http://www.w3.org/2000/svg" xmlns:xlink="http://www.w3.org/1999/xlink" x="0px" y="0px"
	 viewBox="0 0 512 512" style="enable-background:new 0 0 512 512;" xml:space="preserve">
<polygon style="fill:#ABB9C6;" points="346.4,490.277 165.605,490.277 178.512,460.075 183.427,448.592 194.153,423.501 
	317.852,423.501 328.578,448.592 333.492,460.075 "/>
<polygon style="fill:#93A0AA;" points="328.578,448.592 183.427,448.592 194.153,423.501 317.852,423.501 "/>
<path style="fill:#B6C7D3;" d="M393.462,501.764H118.535l0,0c9.791-14.369,26.054-22.967,43.442-22.967h188.043
	C367.408,478.797,383.67,487.395,393.462,501.764L393.462,501.764z"/>
<path style="fill:#ABB9C6;" d="M512,66.435v326.991c0,18.511-14.997,33.52-33.509,33.52H33.509C14.997,426.946,0,411.937,0,393.426
	V66.435c0-18.511,14.997-33.52,33.509-33.52h444.983C497.003,32.915,512,47.924,512,66.435z"/>
<path style="fill:#C5D6E2;" d="M512,66.435v326.991c0,18.511-14.997,33.52-33.509,33.52H180.898l24.552-59.875L342.47,32.915
	h136.021C497.003,32.915,512,47.924,512,66.435z"/>
<path style="fill:#B8E9F2;" d="M512,66.435v300.636H0V66.435c0-18.511,14.997-33.52,33.509-33.52h444.983
	C497.003,32.915,512,47.924,512,66.435z"/>
<g>
	<path id="SVGCleanerId_0" style="fill:#D4F7FC;" d="M512,66.435v300.636H205.45L342.47,32.915h136.021
		C497.003,32.915,512,47.924,512,66.435z"/>
</g>
<path style="fill:#93A0AA;" d="M256.002,404.553c-3.448,0-6.634-2.135-7.958-5.317c-1.465-3.521-0.359-7.694,2.622-10.058
	c6.24-4.949,15.53,0.968,13.723,8.703C263.488,401.727,259.968,404.553,256.002,404.553z"/>
<g>
	<path id="SVGCleanerId_0_1_" style="fill:#D4F7FC;" d="M512,66.435v300.636H205.45L342.47,32.915h136.021
		C497.003,32.915,512,47.924,512,66.435z"/>
</g>
<g>
	<path id="SVGCleanerId_0_2_" style="fill:#D4F7FC;" d="M512,66.435v300.636H205.45L342.47,32.915h136.021
		C497.003,32.915,512,47.924,512,66.435z"/>
</g>
<polyline style="fill:#616C77;" points="297.632,242.512 368.818,242.512 368.818,301.027 143.18,301.027 143.18,242.512 
	198.484,242.512 "/>
<rect x="167.003" y="263.154" style="fill:#4A535B;" width="177.993" height="17.225"/>
<polygon style="fill:#93C93F;" points="439.06,117.411 293.323,263.159 276.098,280.384 226.903,280.384 209.678,263.159 
	144.326,197.795 331.885,10.236 "/>
<ellipse transform="matrix(-0.7071 -0.7071 0.7071 -0.7071 386.5004 475.3115)" style="fill:#89B240;" cx="291.69" cy="157.609" rx="47.518" ry="38.601"/>
<g>
	<path style="fill:#7FA037;" d="M300.618,208.308c-14.278,0-29.538-6.168-41.498-18.129c-21.44-21.44-24.27-53.494-6.309-71.457
		c17.961-17.962,50.016-15.131,71.456,6.309c21.44,21.44,24.27,53.494,6.309,71.457C322.634,204.43,311.934,208.308,300.618,208.308
		z M282.805,121.744c-7.458,0-14.36,2.459-19.438,7.537c-12.14,12.14-9.31,34.725,6.309,50.344
		c15.619,15.62,38.203,18.449,50.343,6.309c12.14-12.14,9.31-34.725-6.309-50.344C304.623,126.503,293.178,121.744,282.805,121.744z
		"/>
	
		<rect x="341.571" y="67.552" transform="matrix(-0.7071 -0.7071 0.7071 -0.7071 528.2495 404.4381)" style="fill:#7FA037;" width="12.632" height="50.527"/>
	
		<rect x="360.236" y="97.708" transform="matrix(-0.7071 -0.7071 0.7071 -0.7071 546.91 449.5128)" style="fill:#7FA037;" width="12.632" height="27.56"/>
	
		<rect x="220.583" y="188.539" transform="matrix(-0.7071 -0.7071 0.7071 -0.7071 236.159 525.4257)" style="fill:#7FA037;" width="12.632" height="50.527"/>
	
		<rect x="239.266" y="218.689" transform="matrix(-0.7071 -0.7071 0.7071 -0.7071 254.8548 570.5021)" style="fill:#7FA037;" width="12.632" height="27.56"/>
</g>
<polygon style="fill:#89B240;" points="293.323,263.159 276.098,280.384 226.903,280.384 209.678,263.159 "/>
<g>
</g>
<g>
</g>
<g>
</g>
<g>
</g>
<g>
</g>
<g>
</g>
<g>
</g>
<g>
</g>
<g>
</g>
<g>
</g>
<g>
</g>
<g>
</g>
<g>
</g>
<g>
</g>
<g>
</g>
</svg>
