<?xml version="1.0" encoding="iso-8859-1"?>
<svg version="1.1" id="Layer_1" xmlns="http://www.w3.org/2000/svg" xmlns:xlink="http://www.w3.org/1999/xlink" x="0px" y="0px"
	 viewBox="0 0 511.999 511.999" style="enable-background:new 0 0 511.999 511.999;" xml:space="preserve">
<path style="fill:#F9A395;" d="M478.981,277.261v100.054h-46.435c-6.226,19.859-15.747,38.246-27.931,54.542v71.387h-78.992v-55.547
	l-1.589,0.596c-21.144,7.909-43.363,11.857-65.569,11.857c-22.768,0-45.535-4.147-67.135-12.453v55.547h-78.992v-71.387
	c-7.698-10.292-14.333-21.424-19.742-33.223l-9.053-24.158c-5.268-12.733-7.64-26.19-8.364-38.865
	c-1.635-28.971,5.49-57.754,19.684-83.057c4.533-8.095,9.836-16.798,15.233-24.064c23.655-31.891,55.36-54.682,90.358-67.392
	c53.642-19.508,115.053-15.326,167.165,16.086c2.36,1.425,4.019,2.5,4.825,3.142c8.901-13.013,23.889-21.553,40.851-21.553h9.743
	v85.265c5.058,10.549,9.147,21.67,12.114,33.223L478.981,277.261L478.981,277.261z"/>
<path style="fill:#E59188;" d="M325.623,447.697l-1.589,0.596c-21.144,7.909-43.363,11.857-65.569,11.857
	c-22.768,0-45.535-4.147-67.135-12.453v55.547h-78.992v-71.387c-7.698-10.292-14.333-21.424-19.742-33.223l-9.053-24.158
	c-5.268-12.733-7.64-26.19-8.364-38.865c-1.635-28.971,5.49-57.754,19.684-83.057c4.533-8.095,9.836-16.798,15.233-24.064
	c23.655-31.891,55.36-54.682,90.358-67.392c0,0-93.134,94.353-75.849,170.787C150.888,448.117,241.608,447.697,325.623,447.697z"/>
<circle style="fill:#FFFFFF;" cx="380.227" cy="276.436" r="16.778"/>
<path style="fill:#FCD577;" d="M314.782,65.763c0,31.494-25.525,57.007-57.007,57.007c-11.343,0-21.915-3.306-30.793-9.018
	c-15.77-10.14-26.214-27.838-26.214-47.988c0-31.482,25.525-57.007,57.007-57.007c12.289,0,23.667,3.89,32.977,10.49
	C305.297,29.585,314.782,46.57,314.782,65.763z"/>
<path style="fill:#FCECC8;" d="M314.782,65.763c0,31.494-25.525,57.007-57.007,57.007c-11.343,0-21.915-3.306-30.793-9.018
	l63.77-94.505C305.297,29.585,314.782,46.57,314.782,65.763z"/>
<path d="M232.195,171.986c-7.217,1.443-14.409,3.354-21.376,5.68c-4.59,1.533-7.069,6.495-5.537,11.085
	c1.225,3.67,4.642,5.989,8.309,5.989c0.919,0,1.855-0.146,2.774-0.453c6.278-2.096,12.759-3.818,19.264-5.118
	c23.696-4.737,48.486-3.966,71.689,2.23c4.676,1.249,9.476-1.53,10.725-6.204c1.249-4.675-1.529-9.476-6.204-10.725
	C286.056,167.585,258.516,166.726,232.195,171.986z"/>
<path d="M91.026,371.121c-4.356-10.53-6.948-22.644-7.704-36.009c-1.519-26.839,4.903-53.906,18.57-78.277
	c5.212-9.295,10.133-17.076,14.624-23.129c23.943-32.268,56.856-55.562,95.184-67.363c37.852-11.655,77.53-11.116,114.742,1.56
	c4.585,1.562,9.559-0.889,11.119-5.468c1.559-4.58-0.888-9.558-5.468-11.119c-40.729-13.873-84.143-14.469-125.549-1.72
	c-41.92,12.907-77.917,38.38-104.099,73.668c-4.933,6.648-10.26,15.059-15.836,24.999c-9.167,16.344-15.396,33.799-18.572,51.652
	c-5.803,0.494-14.036,0.127-19.285-3.971c-4.283-3.344-6.364-8.969-6.364-17.197c0-4.839-3.923-8.761-8.761-8.761
	s-8.761,3.923-8.761,8.761c0,13.787,4.409,24.219,13.103,31.007c6.587,5.142,15.56,7.857,25.97,7.857c0.096,0,0.194,0,0.291,0
	c0.572-0.002,1.131-0.016,1.68-0.034c-0.389,6.164-0.432,12.348-0.083,18.524c0.868,15.332,3.898,29.368,9.008,41.719
	c1.397,3.376,4.66,5.413,8.099,5.413c1.117,0,2.251-0.215,3.346-0.668C90.752,380.716,92.877,375.592,91.026,371.121z"/>
<path d="M478.371,268.495h-37.165c-2.665-9.008-6.02-17.865-10.011-26.428v-83.293c0-4.839-3.923-8.761-8.761-8.761h-9.744
	c-16.371,0-31.83,6.868-42.777,18.701c-3.543-2.092-7.171-4.089-10.807-5.951c-4.307-2.204-9.587-0.5-11.792,3.807
	c-2.204,4.308-0.5,9.587,3.807,11.792c3.833,1.961,7.655,4.089,11.362,6.323c3.03,1.826,3.8,2.417,3.876,2.478
	c1.902,1.521,4.351,2.182,6.763,1.824c2.41-0.359,4.561-1.704,5.938-3.715c7.608-11.106,20.18-17.736,33.632-17.736h0.982v76.498
	c0,1.311,0.293,2.604,0.86,3.786c4.869,10.162,8.745,20.798,11.518,31.613c0.994,3.875,4.486,6.585,8.487,6.585h35.072v82.537
	h-37.675c-3.829,0-7.215,2.486-8.359,6.14c-5.857,18.679-14.801,36.146-26.582,51.914c-1.131,1.514-1.743,3.354-1.743,5.244v62.624
	h-61.476v-46.783c0-2.873-1.409-5.563-3.769-7.199c-2.36-1.638-5.374-2.013-8.063-1.006l-1.591,0.596
	c-40.851,15.281-85.769,15.08-126.484-0.568c-2.694-1.036-5.726-0.679-8.105,0.957c-2.38,1.634-3.8,4.335-3.8,7.222v46.783h-61.464
	v-62.625c0-1.892-0.612-3.735-1.746-5.25c-7.365-9.843-13.69-20.482-18.798-31.622c-2.016-4.399-7.219-6.328-11.615-4.312
	c-4.398,2.016-6.329,7.217-4.312,11.615c5.216,11.377,11.585,22.279,18.95,32.445v68.509c0,4.839,3.923,8.761,8.761,8.761h78.987
	c4.839,0,8.761-3.923,8.761-8.761v-43.224c38.02,11.877,78.718,11.883,116.766-0.007v43.23c0,4.839,3.923,8.761,8.761,8.761h78.999
	c4.839,0,8.761-3.923,8.761-8.761v-68.511c10.839-14.976,19.39-31.303,25.481-48.65h40.116c4.839,0,8.761-3.923,8.761-8.761v-100.06
	C487.132,272.417,483.209,268.495,478.371,268.495z"/>
<path d="M405.158,276.435c0-14.083-11.457-25.54-25.54-25.54c-14.082,0-25.54,11.457-25.54,25.54s11.457,25.54,25.54,25.54
	C393.701,301.975,405.158,290.517,405.158,276.435z M371.601,276.435c0-4.422,3.597-8.017,8.017-8.017s8.017,3.597,8.017,8.017
	s-3.597,8.017-8.017,8.017S371.601,280.855,371.601,276.435z"/>
<path d="M257.167,131.536c36.265,0,65.768-29.503,65.768-65.768S293.432,0,257.167,0c-10.947,0-21.789,2.748-31.355,7.944
	c-4.252,2.311-5.826,7.629-3.516,11.88c2.309,4.252,7.628,5.825,11.88,3.516c7.007-3.806,14.956-5.817,22.991-5.817
	c26.603,0,48.245,21.643,48.245,48.245s-21.643,48.245-48.245,48.245c-26.602,0-48.244-21.643-48.244-48.245
	c0-9.669,2.848-18.994,8.234-26.967c2.709-4.009,1.654-9.456-2.355-12.165c-4.01-2.708-9.456-1.655-12.165,2.355
	c-7.351,10.88-11.237,23.598-11.237,36.778C191.399,102.033,220.902,131.536,257.167,131.536z"/>
<g>
</g>
<g>
</g>
<g>
</g>
<g>
</g>
<g>
</g>
<g>
</g>
<g>
</g>
<g>
</g>
<g>
</g>
<g>
</g>
<g>
</g>
<g>
</g>
<g>
</g>
<g>
</g>
<g>
</g>
</svg>
