<?xml version="1.0" ?>
<svg viewBox="0 0 24 24" fill="none" xmlns="http://www.w3.org/2000/svg">
<path d="M11.9999 22.75C11.9399 22.75 11.8799 22.74 11.8299 22.73C11.7699 22.72 11.7099 22.69 11.6499 22.66L9.43987 21.56C9.06987 21.37 8.91986 20.92 9.09986 20.55C9.28986 20.18 9.73986 20.03 10.1099 20.21L11.2499 20.78V19.22C11.2499 18.81 11.5899 18.47 11.9999 18.47C12.4099 18.47 12.7499 18.81 12.7499 19.22V20.78L13.8899 20.21C14.2599 20.03 14.7099 20.18 14.8999 20.55C15.0899 20.92 14.9399 21.37 14.5599 21.56L12.3499 22.66C12.2899 22.69 12.2299 22.71 12.1699 22.73C12.1099 22.74 12.0599 22.75 11.9999 22.75ZM18.6699 19.42C18.3999 19.42 18.1299 19.27 17.9999 19.01C17.8099 18.64 17.9599 18.19 18.3399 18L20.1499 17.1V14.79C20.1499 14.38 20.4899 14.04 20.8999 14.04C21.3099 14.04 21.6499 14.38 21.6499 14.79V17.57C21.6499 17.85 21.4899 18.11 21.2399 18.24L19.0199 19.35C18.8899 19.39 18.7799 19.42 18.6699 19.42ZM5.32986 19.42C5.21986 19.42 5.09986 19.39 4.99986 19.34L2.77986 18.23C2.52986 18.1 2.36987 17.84 2.36987 17.56V14.78C2.36987 14.37 2.70987 14.03 3.11987 14.03C3.52987 14.03 3.86987 14.37 3.86987 14.78V17.09L5.67986 17.99C6.04986 18.18 6.19986 18.63 6.01986 19C5.86986 19.26 5.60986 19.42 5.32986 19.42ZM11.9999 14.42C11.5899 14.42 11.2499 14.08 11.2499 13.67V11.36L9.43987 10.46C9.06987 10.27 8.91986 9.81998 9.09986 9.44998C9.28986 9.07998 9.73986 8.92998 10.1099 9.10998L11.9999 10.05L13.8899 9.10998C14.2599 8.92998 14.7099 9.06998 14.8999 9.44998C15.0899 9.82998 14.9399 10.27 14.5599 10.46L12.7499 11.36V13.67C12.7499 14.08 12.4099 14.42 11.9999 14.42ZM20.8899 9.96998C20.4799 9.96998 20.1399 9.62998 20.1399 9.21998V7.65998L18.9999 8.22998C18.6299 8.41998 18.1799 8.26998 17.9899 7.88998C17.7999 7.51998 17.9499 7.06999 18.3299 6.87999L19.2099 6.43998L18.3299 5.99998C17.9599 5.80998 17.8099 5.35999 17.9899 4.98999C18.1799 4.61999 18.6299 4.46997 18.9999 4.64997L21.2099 5.74998C21.2299 5.75998 21.2599 5.76997 21.2799 5.78997C21.3399 5.81997 21.3899 5.86998 21.4399 5.91998C21.4699 5.95998 21.4999 5.99997 21.5299 6.03997C21.5699 6.10997 21.5999 6.17997 21.6199 6.25997C21.6299 6.31997 21.6399 6.37997 21.6399 6.42997V6.43998V9.19998C21.6399 9.63998 21.2999 9.96998 20.8899 9.96998ZM3.10986 9.96998C2.69986 9.96998 2.35986 9.62998 2.35986 9.21998V6.45999V6.44998C2.35986 6.38998 2.36986 6.32998 2.37986 6.27998C2.39986 6.19998 2.42986 6.12998 2.46986 6.05998C2.49986 6.00998 2.52986 5.96997 2.56986 5.92997C2.60986 5.88997 2.65986 5.84999 2.70986 5.81999C2.72986 5.80999 2.75986 5.78998 2.77986 5.77998L4.98986 4.67997C5.35986 4.49997 5.80986 4.63998 5.99986 5.01998C6.18986 5.39998 6.03987 5.83998 5.65987 6.02998L4.77986 6.46998L5.65987 6.90998C6.02987 7.09998 6.17986 7.54998 5.99986 7.91998C5.80986 8.28998 5.36986 8.43997 4.98986 8.25997L3.84986 7.68998V9.24998C3.85986 9.63998 3.52986 9.96998 3.10986 9.96998ZM14.2199 3.85998C14.1099 3.85998 13.9899 3.82998 13.8899 3.77998L11.9999 2.83998L10.1099 3.77998C9.73986 3.96998 9.28986 3.81998 9.09986 3.43998C8.90986 3.06998 9.05987 2.61997 9.43987 2.42997L11.6599 1.31999C11.8699 1.20999 12.1199 1.20999 12.3299 1.31999L14.5499 2.42997C14.9199 2.61997 15.0699 3.06998 14.8899 3.43998C14.7599 3.70998 14.4999 3.85998 14.2199 3.85998Z" fill="currentColor"/>
</svg>