<?xml version="1.0" encoding="iso-8859-1"?>
<!-- Generator: Adobe Illustrator 19.0.0, SVG Export Plug-In . SVG Version: 6.00 Build 0)  -->
<svg version="1.1" id="Capa_1" xmlns="http://www.w3.org/2000/svg" xmlns:xlink="http://www.w3.org/1999/xlink" x="0px" y="0px"
	 viewBox="0 0 490 490" style="enable-background:new 0 0 490 490;" xml:space="preserve" fill="currentColor">
<path d="M69.086,490h351.829C459.001,490,490,459.001,490,420.914V69.086C490,30.999,459.001,0,420.914,0H69.086
	C30.999,0,0,30.999,0,69.086v351.829C0,459.001,30.999,490,69.086,490z M338.011,349.122L149.955,309.6l6.311-29.967l188.057,39.522
	L338.011,349.122z M332.345,132.482c23.551,0,42.642,19.091,42.642,42.641c0,23.551-19.091,42.642-42.642,42.642
	c-23.55,0-42.641-19.091-42.641-42.642C289.704,151.574,308.795,132.482,332.345,132.482z M157.647,132.482
	c23.55,0,42.642,19.091,42.642,42.641c0,23.551-19.092,42.642-42.642,42.642c-23.551,0-42.642-19.091-42.642-42.642
	C115.005,151.574,134.096,132.482,157.647,132.482z"/>
<g>
</g>
<g>
</g>
<g>
</g>
<g>
</g>
<g>
</g>
<g>
</g>
<g>
</g>
<g>
</g>
<g>
</g>
<g>
</g>
<g>
</g>
<g>
</g>
<g>
</g>
<g>
</g>
<g>
</g>
</svg>
