<?xml version="1.0" encoding="iso-8859-1"?>
<svg version="1.1" id="Capa_1" xmlns="http://www.w3.org/2000/svg" xmlns:xlink="http://www.w3.org/1999/xlink" x="0px" y="0px"
	  viewBox="0 0 263.658 263.659" style="enable-background:new 0 0 263.658 263.659;"
	 xml:space="preserve">
<g>
	<g>
		<path d="M130.637,109.022c-1.801,1.813-2.927,4.065-3.414,6.714c-0.486,2.696-0.036,5.584,1.198,8.791l17.825-17.822
			c-2.721-1.333-5.495-1.766-8.344-1.333C135.057,105.81,132.64,107.053,130.637,109.022z"/>
		<path d="M261.011,5.56c-2.271-2.3-13.589-1.862-23.779-1.874L193.805,3.62c-10.189-0.012-23.623-0.895-29.735,0.457
			c-3.478,0.769-7.116,2.27-9.956,5.11L7.044,153.553c0,0-16.222,14.778,0.57,31.537l68.752,68.779c0,0,14.874,14.85,30.204-0.469
			l145.961-145.94c0,0,11.109-13.415,11.109-23.959l0.018-54.355C263.658,18.95,263.28,7.859,261.011,5.56z M166.219,140.067
			l-14.735-11.325c3.242-4.857,3.975-9.638,2.089-14.399l-20.158,20.11c6.02,10.479,8.755,18.938,8.191,25.49
			c-0.559,6.533-3.651,12.61-9.185,18.141c-6.236,6.245-13.346,9.565-21.332,10.088c-8.031,0.486-15.865-2.138-23.488-7.872
			l-9.635,9.649l-7.479-7.476l9.353-9.355c-5.215-6.66-7.785-13.691-7.785-21.125c0-7.386,2.849-15.018,8.604-22.8l14.847,11.992
			c-2.207,3.297-3.522,6.719-4.008,10.202c-0.486,3.488-0.24,6.629,0.715,9.355l21.575-21.563
			c-4.834-8.641-6.825-16.465-6.068-23.527c0.723-7.038,3.897-13.331,9.469-18.879c5.627-5.621,12.094-8.551,19.479-8.827
			c7.38-0.276,14.292,2.246,20.807,7.554l5.099-5.098l7.464,7.464l-5.099,5.098c4.78,6.113,7.272,12.298,7.44,18.597
			C172.518,127.853,170.471,134.05,166.219,140.067z M237.195,53.34c-6.431,6.437-16.837,6.437-23.25,0
			c-6.414-6.401-6.414-16.82,0-23.239c6.413-6.437,16.819-6.437,23.25,0C243.621,36.52,243.621,46.939,237.195,53.34z"/>
		<path d="M98.95,168.938c3.056,2.096,6.341,2.961,9.845,2.684c3.525-0.281,6.581-1.705,9.151-4.293
			c2.3-2.27,3.579-4.936,3.897-7.95c0.321-3.038-0.639-6.545-2.81-10.521L98.95,168.938z"/>
	</g>
</g>
<g>
</g>
<g>
</g>
<g>
</g>
<g>
</g>
<g>
</g>
<g>
</g>
<g>
</g>
<g>
</g>
<g>
</g>
<g>
</g>
<g>
</g>
<g>
</g>
<g>
</g>
<g>
</g>
<g>
</g>
</svg>
