<svg viewBox="0 0 24 24" id="_003_ECOMMERCE_03" data-name="003_ECOMMERCE_03" xmlns="http://www.w3.org/2000/svg">
<title>003_087</title>
<path d="M11,21H4a.99942.99942,0,0,1-1-1V4A.99942.99942,0,0,1,4,3H20a.99942.99942,0,0,1,1,1v7a1,1,0,0,1-2,0V5H5V19h6a1,1,0,0,1,0,2Z" fill="currentColor" />
<polygon points="10 4 10 10 12 8 14 10 14 4 10 4" fill="currentColor" />
<path d="M17.0957,21a.99688.99688,0,0,1-.707-.293l-2.19531-2.19629a.99989.99989,0,0,1,1.41406-1.41406L17,18.49023l3.17969-4.10254a.99954.99954,0,0,1,1.58008,1.22461l-3.874,5a.999.999,0,0,1-.72754.38574C17.1377,20.999,17.11621,21,17.0957,21Z" fill="currentColor" />
</svg>