<?xml version="1.0" encoding="UTF-8"?>
<svg xmlns="http://www.w3.org/2000/svg" xmlns:xlink="http://www.w3.org/1999/xlink" viewBox="0 0 48 48" width="48px" height="48px">
<g id="surface141704057">
<path style=" stroke:none;fill-rule:nonzero;fill:rgb(100%,92.156863%,23.137255%);fill-opacity:1;" d="M 33.601562 41.28125 L 14.398438 41.28125 C 10.164062 41.28125 6.71875 37.835938 6.71875 33.601562 L 6.71875 14.398438 C 6.71875 10.164062 10.164062 6.71875 14.398438 6.71875 L 33.601562 6.71875 C 37.835938 6.71875 41.28125 10.164062 41.28125 14.398438 L 41.28125 33.601562 C 41.28125 37.835938 37.835938 41.28125 33.601562 41.28125 Z M 33.601562 41.28125 "/>
<path style=" stroke:none;fill-rule:nonzero;fill:rgb(12.941177%,12.941177%,12.941177%);fill-opacity:1;" d="M 24 24 C 24 26.148438 22.316406 27.886719 20.242188 27.886719 C 18.167969 27.886719 16.488281 26.148438 16.488281 24 C 16.488281 21.851562 18.167969 20.113281 20.242188 20.113281 C 22.316406 20.113281 24 21.851562 24 24 Z M 20.242188 21.851562 C 19.207031 21.851562 18.363281 22.8125 18.363281 24 C 18.363281 25.1875 19.207031 26.148438 20.242188 26.148438 C 21.28125 26.148438 22.121094 25.1875 22.121094 24 C 22.121094 22.8125 21.28125 21.851562 20.242188 21.851562 Z M 20.242188 21.851562 "/>
<path style=" stroke:none;fill-rule:nonzero;fill:rgb(12.941177%,12.941177%,12.941177%);fill-opacity:1;" d="M 38.398438 24 C 38.398438 26.148438 36.71875 27.886719 34.644531 27.886719 C 32.570312 27.886719 30.886719 26.148438 30.886719 24 C 30.886719 21.851562 32.570312 20.113281 34.644531 20.113281 C 36.71875 20.113281 38.398438 21.851562 38.398438 24 Z M 34.644531 21.851562 C 33.605469 21.851562 32.765625 22.8125 32.765625 24 C 32.765625 25.1875 33.605469 26.148438 34.644531 26.148438 C 35.679688 26.148438 36.523438 25.1875 36.523438 24 C 36.523438 22.8125 35.679688 21.851562 34.644531 21.851562 Z M 34.644531 21.851562 "/>
<path style=" stroke:none;fill-rule:nonzero;fill:rgb(12.941177%,12.941177%,12.941177%);fill-opacity:1;" d="M 27.128906 25.878906 L 27.128906 20.242188 L 25.25 20.242188 L 25.25 27.757812 L 30.261719 27.757812 L 30.261719 25.878906 Z M 27.128906 25.878906 "/>
<path style=" stroke:none;fill-rule:nonzero;fill:rgb(12.941177%,12.941177%,12.941177%);fill-opacity:1;" d="M 16.488281 20.242188 L 13.980469 24.625 L 13.980469 27.757812 L 12.105469 27.757812 L 12.105469 24.625 L 9.601562 20.242188 L 11.480469 20.242188 L 13.042969 22.75 L 14.609375 20.242188 Z M 16.488281 20.242188 "/>
<path style=" stroke:none;fill-rule:nonzero;fill:rgb(29.803923%,68.627453%,31.37255%);fill-opacity:1;" d="M 47.039062 37.441406 C 47.039062 42.71875 42.71875 47.039062 37.441406 47.039062 C 32.160156 47.039062 27.839844 42.71875 27.839844 37.441406 C 27.839844 32.160156 32.160156 27.839844 37.441406 27.839844 C 42.71875 27.839844 47.039062 32.160156 47.039062 37.441406 "/>
<path style=" stroke:none;fill-rule:nonzero;fill:rgb(90.980393%,96.078432%,91.37255%);fill-opacity:1;" d="M 38.671875 39.914062 C 38.671875 39.53125 38.566406 39.222656 38.351562 38.996094 C 38.136719 38.769531 37.777344 38.558594 37.265625 38.367188 C 36.753906 38.175781 36.3125 37.984375 35.945312 37.792969 C 35.597656 37.621094 35.277344 37.402344 34.992188 37.140625 C 34.726562 36.898438 34.515625 36.601562 34.371094 36.273438 C 34.222656 35.941406 34.148438 35.542969 34.148438 35.085938 C 34.148438 34.292969 34.402344 33.644531 34.910156 33.136719 C 35.414062 32.632812 36.089844 32.335938 36.929688 32.25 L 36.929688 30.746094 L 38.054688 30.746094 L 38.054688 32.269531 C 38.882812 32.386719 39.53125 32.734375 40 33.308594 C 40.46875 33.882812 40.703125 34.628906 40.703125 35.539062 L 38.671875 35.539062 C 38.671875 34.976562 38.554688 34.558594 38.324219 34.277344 C 38.09375 34 37.78125 33.859375 37.390625 33.859375 C 37.007812 33.859375 36.710938 33.96875 36.5 34.1875 C 36.289062 34.40625 36.183594 34.707031 36.183594 35.089844 C 36.183594 35.449219 36.285156 35.734375 36.492188 35.949219 C 36.699219 36.167969 37.082031 36.382812 37.640625 36.609375 C 38.203125 36.835938 38.660156 37.046875 39.023438 37.246094 C 39.382812 37.445312 39.6875 37.671875 39.9375 37.921875 C 40.1875 38.171875 40.375 38.457031 40.507812 38.777344 C 40.636719 39.101562 40.703125 39.476562 40.703125 39.902344 C 40.703125 40.699219 40.453125 41.34375 39.960938 41.839844 C 39.460938 42.339844 38.777344 42.628906 37.90625 42.71875 L 37.90625 44.117188 L 36.789062 44.117188 L 36.789062 42.726562 C 35.828125 42.625 35.082031 42.28125 34.554688 41.703125 C 34.027344 41.125 33.765625 40.355469 33.765625 39.394531 L 35.796875 39.394531 C 35.796875 39.953125 35.929688 40.378906 36.191406 40.679688 C 36.457031 40.976562 36.839844 41.125 37.335938 41.125 C 37.75 41.125 38.074219 41.015625 38.3125 40.796875 C 38.550781 40.578125 38.671875 40.285156 38.671875 39.914062 Z M 38.671875 39.914062 "/>
</g>
</svg>
